<svg xmlns="http://www.w3.org/2000/svg" viewBox="0 0 980 980" fill="none" shape-rendering="auto"><metadata xmlns:rdf="http://www.w3.org/1999/02/22-rdf-syntax-ns#" xmlns:xsi="http://www.w3.org/2001/XMLSchema-instance" xmlns:dc="http://purl.org/dc/elements/1.1/" xmlns:dcterms="http://purl.org/dc/terms/"><rdf:RDF><rdf:Description><dc:title>Lorelei</dc:title><dc:creator>Lisa Wischofsky</dc:creator><dc:source xsi:type="dcterms:URI">https://www.figma.com/community/file/1198749693280469639</dc:source><dcterms:license xsi:type="dcterms:URI">https://creativecommons.org/publicdomain/zero/1.0/</dcterms:license><dc:rights>Remix of „Lorelei” (https://www.figma.com/community/file/1198749693280469639) by „Lisa Wischofsky”, licensed under „CC0 1.0” (https://creativecommons.org/publicdomain/zero/1.0/)</dc:rights></rdf:Description></rdf:RDF></metadata><mask id="viewboxMask"><rect width="980" height="980" rx="0" ry="0" x="0" y="0" fill="#fff" /></mask><g mask="url(#viewboxMask)"><g transform="translate(10 -60)"><path d="M498 134c4 0 8 0 12 2 3 1 4 5 3 8-1 2-4 4-7 5l-8 9a98 98 0 0 1 62 1c14 5 28 12 40 21 10 7 20 15 31 21 14 8 30 14 46 17l40 8c19 3 37 8 54 17 15 7 30 16 40 29 7 10 9 22 5 34-5 11-15 19-22 29-2 4-6 9-6 13 1 5 6 9 9 12l34 19c8 5 15 11 20 19 6 7 9 16 8 25 0 6-2 13-5 18-3 7-10 12-16 17l-21 22c-6 8-11 20-7 30 2 5 4 11 10 13l21 10c23 15 38 43 38 71 0 19-7 37-20 51a62 62 0 0 1-47 18c-4-1-8-1-12 1-6 2-9 9-9 16 2 14 8 27 11 41 2 10 2 21-1 32-3 8-7 16-13 22-7 6-16 10-26 10-11 0-21-5-32-8a58 58 0 0 0-51 15c0 8 4 16 12 20 3 2 6 1 10 1 2 0 3 3 3 5-1 5-3 10-6 14a104 104 0 0 1-54 30l-15 1c-9 1-19 0-29-1-24-2-49-6-74-7-12 0-25 3-37 4l-17 4-29 4a264 264 0 0 1-103-15c-9-4-17-8-23-15-8-7-12-18-12-28l4-24c1-4 1-10-2-13-4-5-10-9-16-10-8-2-17-3-23-8-7-4-9-12-9-19-1-12 4-23 10-34l20-31 4-12 5-40c-9-5-19-10-27-17-6-4-10-9-14-15a72 72 0 0 1-15-44c-1-7 1-15-2-22-2-8-8-12-12-19l-15-20c-6-10-10-22-13-33-7-26-8-54 0-79 7-21 19-40 35-55l34-28 11-14c5-10 8-20 15-29 8-14 23-24 38-29 7-2 15-4 22-3 8 2 15 4 22 8a150 150 0 0 1 80-87c13-5 27-9 41-8Z" fill="#000000"/><path d="M495 234c28 1 56 6 84 15a201 201 0 0 1 100 65c19 25 31 55 35 86a361 361 0 0 1 2 101l-5 34-4 20c-1 2-1 2-3 2-2-4-2-8-2-12-1-15 1-29 2-44 1-24 3-48 1-72l-6-45c-7-28-20-54-40-75-18-18-40-33-63-43-22-9-44-15-67-19-18-3-36-4-54-4a277 277 0 0 0-128 29c-13 9-25 20-35 32a276 276 0 0 0-55 139c-1 24 0 47 8 70l7 15 12 1 1 3c-3 2-7 2-11 3-10 2-20 6-29 12-7 5-14 11-18 19-5 10-3 22-1 33 5 19 17 37 33 49 11 9 25 14 39 16 10 2 20 0 30-1 5 4 8 12 11 17l18 27a136 136 0 0 0 66 50c22 9 45 14 68 19l41 8 17 5v4h-12a535 535 0 0 1-67-8 255 255 0 0 1-84-33c-11-7-21-16-29-27a214 214 0 0 1-16 123c-15 27-40 48-70 57-3 1-7 2-10 1-2 0-2-1-2-3 1-3 4-5 6-6 12-8 26-14 38-23 13-11 24-23 31-38 6-15 10-32 12-49 2-13 3-26 2-40l-4-38-18-36-19 4a88 88 0 0 1-75-38 93 93 0 0 1-20-58c0-9 3-18 8-25s12-13 19-17c5-4 12-6 18-8l-9-24c-5-22-5-45-2-67a292 292 0 0 1 63-149c9-10 18-19 29-26 7-4 14-5 20-9 43-19 90-25 137-22Z" fill="#000"/><path d="M475 243a276 276 0 0 1 121 23c23 10 45 25 63 43 20 21 33 47 40 75l6 45c2 24 0 48-1 72-1 15-3 29-2 44 0 4 0 8 2 12l-1 20c-2 5-2 10-2 16-2 24-2 49-6 74-1 12-3 25-8 36-3 9-8 17-15 24-12 13-27 24-43 33-19 11-39 16-58 24-5 2-10 4-13 8 8 1 15 0 23-2-5 12-6 24-6 36 0 5-1 11 1 16 3 5 8 9 13 12l35 13c22 8 43 18 65 27 2 4 5 7 6 12 6 11 7 23 3 35-5 13-15 24-27 31-16 11-36 19-55 24a494 494 0 0 1-235-7c-20-7-40-14-58-24-14-8-29-18-40-31-6-8-11-19-12-29a122 122 0 0 0 86-107c4-24 4-49 0-73 8 11 18 20 29 27l27 14a331 331 0 0 0 124 27h12v-4l-17-5-41-8c-23-5-46-10-68-19-13-6-27-13-39-21-10-9-19-18-27-29l-18-27c-3-5-6-13-11-17-10 1-20 3-30 1-14-2-28-7-39-16a94 94 0 0 1-33-49c-2-11-4-23 1-33 4-8 11-14 18-19 9-6 19-10 29-12 4-1 8-1 11-3l-1-3-12-1-7-15c-8-23-9-46-7-70a276 276 0 0 1 54-139c10-12 22-23 35-32a277 277 0 0 1 128-30Z" fill="#ffffff"/><path d="M260 571c4 0 7 0 11 2 5 1 11 4 14 8 2 3 2 7 0 10-5 6-12 10-16 16 6 4 14 6 21 9 4 1 8 3 11 6l1 3-8-2-24-7c-4-1-8-3-9-7-1-3 1-7 3-10l15-13c-4-7-15-8-19-15ZM703 577l2 3 2 16a483 483 0 0 1-2 89c-2 11-5 23-10 33a198 198 0 0 1-106 71c-1 14-3 31-2 47l5 5c8 6 18 9 27 12a451 451 0 0 1 68 28c7 4 13 9 18 15-5 1-10-1-16-2-22-9-43-19-65-27l-35-13c-5-3-10-7-13-12-2-5-1-11-1-16 0-12 1-24 6-36-8 2-15 3-23 2 3-4 8-6 13-8 19-8 39-13 58-24 16-9 31-20 43-33 7-7 12-15 15-24 5-11 7-24 8-36 4-25 4-50 6-74 0-6 0-11 2-16Z" fill="#000"/><path d="M490 492c7 3 13 8 19 13 6 6 12 13 13 22 0 2 1 5-2 6l-4-8c2 9-3 20-12 24-6 3-13 4-19 3-9-1-17-6-23-13-4-6-6-14-4-21 1-8 5-15 11-19a90 90 0 0 0-55 14c-5 3-10 7-13 12-2 3-5 5-9 5-6 0-10-7-8-12l8-11c12-10 26-18 41-22 19-6 40-2 57 7ZM681 484c6 2 14 4 17 9 4 6 1 13-6 14 2 8 2 17-3 24-7 9-23 11-31 3-5-6-9-14-8-22 1-4 3-7 6-11-12 3-21 11-28 20-4 5-6 10-9 16l-5 1 1-6a90 90 0 0 1 39-43c8-5 17-7 27-5Z" fill="#000000"/><path d="M503 394c7 0 14 2 19 6 4 2 7 4 8 8 1 2 0 5-2 6-5 1-10-2-14-3l-9-1c-13-1-26 1-39 4a169 169 0 0 0-60 31c-4 2-9 5-14 4-3 0-3-4-2-7 1-6 7-11 12-16 10-9 23-15 35-20 20-9 44-14 66-12ZM659 396c7-2 14-1 20 3 4 3 8 6 9 11 1 3 1 6-2 7s-7 1-10-1c-5-3-9-6-15-6-5 0-10 1-14 3-8 4-16 11-20 19l-6 9h-3v-6c2-8 7-16 13-22 7-8 17-15 28-17Z" fill="#000000"/><path d="m591 528 2 2 7 22c4 8 10 15 15 23 4 6 6 13 5 20-1 6-4 12-9 16-7 7-16 12-25 16-5 3-11 4-17 2l5-4c11-9 25-14 36-24 2-2 4-6 4-9-1-7-5-11-8-16-5-9-10-16-13-25-2-7-4-16-2-23Z" fill="#000000"/><path d="M608 667c2 0 4 0 5 2l-1 15c5-1 10-4 16-2 0 4-4 7-7 9l-35 12c-17 4-34 7-51 8-7 1-15-1-22-3-2-1-4-1-4-4 4-2 9 0 12-1 2-5 7-7 11-10l31-19c3-1 7-4 10-4 4-1 7 4 11 4 8-2 16-7 24-7ZM607 712c1 4 1 8-1 11-2 5-7 9-12 11-6 2-12 3-18 2-2 0-6-2-6-5 1-2 5-2 7-3 8-4 18-7 25-13 2-1 3-3 5-3Z" fill="#000000"/><path d="M507 135c3 0 6 2 7 6 0 4-4 6-6 8-4 2-7 5-10 9a99 99 0 0 1 60 1c15 5 29 12 42 21 10 7 21 15 32 21 8 5 17 9 26 12 18 6 36 8 55 12a226 226 0 0 1 82 32c8 6 15 13 19 22 5 9 5 21 0 30-5 10-14 17-20 26-2 4-6 9-6 13 1 5 5 8 8 11 15 11 34 17 47 30 10 8 17 20 16 33 0 8-3 17-8 23-5 7-12 13-18 19-8 7-16 15-21 24-3 7-5 17-1 24 3 8 12 13 19 16 5 2 10 4 14 8 1 3 1 7-1 10-5 6-13 11-21 13-16 5-33 4-49-1-13-3-24-8-34-16-9-6-16-15-21-25-10-16-13-35-14-54v-33l-1-6c-6-5-13-9-21-10-11-2-22-3-33-8-7-3-12-9-16-15s-5-13-7-20l-6-17c-1-4-5-8-10-11-4-3-10-2-14-1-7 3-14 5-22 5-15 0-31-2-45-10-8-5-14-13-17-22-4-7-4-14-6-22-6 8-12 17-21 23 5 17 2 35-7 50-7 13-17 24-28 34l-31 22c-18 13-36 24-50 41-6 9-13 20-13 31 0 6 4 9 6 14 4 7 6 17 5 25-3 11-12 20-16 30-3 9-5 19-2 28 2 8 7 15 14 19l13 5h11c3 0 4 3 3 5l-5 8-17 7c-9 3-19 4-29 4-8 0-17-2-25-4-9-3-18-8-27-13-7-4-15-9-21-15a76 76 0 0 1-24-60c0-6 0-11-2-17-2-8-8-12-12-19l-14-19a153 153 0 0 1-15-108 129 129 0 0 1 41-65l29-23c5-4 8-9 11-15 6-9 9-19 15-28 8-14 23-24 39-29 6-2 14-4 21-3 8 2 15 4 22 8a149 149 0 0 1 74-84c6-3 12-6 18-7 12-4 25-5 38-3Z" fill="#000000"/></g><g transform="translate(10 -60)"></g></g></svg>